<svg xmlns="http://www.w3.org/2000/svg" width="1400" height="840" viewBox="0 0 1400 840" role="img" aria-labelledby="title desc">
<title id="title">Causal Language Modeling and Causal Masking</title><desc id="desc">Why the model can use the past but not the future</desc>
<defs><marker id="arrow" markerWidth="10" markerHeight="10" refX="9" refY="5" orient="auto" markerUnits="userSpaceOnUse"><path d="M0 0 L10 5 L0 10 Z" fill="#16191f"/></marker><marker id="blue" markerWidth="10" markerHeight="10" refX="9" refY="5" orient="auto" markerUnits="userSpaceOnUse"><path d="M0 0 L10 5 L0 10 Z" fill="#0869d9"/></marker></defs>
<rect width="100%" height="100%" fill="white"/>
<g font-family="Arial, Liberation Sans, DejaVu Sans, sans-serif"><text x="700" y="55" font-size="39" font-weight="700" fill="#16191f" text-anchor="middle">Causal Language Modeling and Causal Masking</text><text x="700" y="97" font-size="25" font-weight="400" fill="#16191f" text-anchor="middle">Why the model can use the past but not the future</text>
<rect x="24" y="132" width="696" height="486" rx="5" fill="white" stroke="#828a96" stroke-width="1.5" stroke-dasharray="8 5"/><text x="44" y="171" font-size="28" font-weight="700" fill="#16191f" text-anchor="start">1. Predicting the Next Token</text><rect x="740" y="132" width="636" height="486" rx="5" fill="white" stroke="#828a96" stroke-width="1.5" stroke-dasharray="8 5"/><text x="760" y="171" font-size="28" font-weight="700" fill="#16191f" text-anchor="start">2. Causal Mask</text><rect x="50" y="282" width="112" height="62" rx="5" fill="white" stroke="#16191f" stroke-width="1.5"/><text x="106.0" y="321.0" font-size="23" font-weight="400" fill="#16191f" text-anchor="middle">I</text><path d="M162 313 H177" fill="none" stroke="#16191f" stroke-width="2" marker-end="url(#arrow)"/><rect x="180" y="282" width="112" height="62" rx="5" fill="white" stroke="#16191f" stroke-width="1.5"/><text x="236.0" y="321.0" font-size="23" font-weight="400" fill="#16191f" text-anchor="middle">like</text><path d="M292 313 H307" fill="none" stroke="#16191f" stroke-width="2" marker-end="url(#arrow)"/><rect x="310" y="282" width="112" height="62" rx="5" fill="white" stroke="#16191f" stroke-width="1.5"/><text x="366.0" y="321.0" font-size="23" font-weight="400" fill="#16191f" text-anchor="middle">using</text><path d="M422 313 H437" fill="none" stroke="#16191f" stroke-width="2" marker-end="url(#arrow)"/><rect x="440" y="282" width="112" height="62" rx="5" fill="white" stroke="#16191f" stroke-width="1.5"/><text x="496.0" y="321.0" font-size="23" font-weight="400" fill="#16191f" text-anchor="middle">Rust</text><path d="M552 313 H567" fill="none" stroke="#16191f" stroke-width="2" marker-end="url(#arrow)"/><rect x="570" y="282" width="112" height="62" rx="5" fill="#dfedfc" stroke="#0869d9" stroke-width="1.5"/><text x="626.0" y="321.0" font-size="23" font-weight="400" fill="#0869d9" text-anchor="middle">___</text><path d="M50 360 Q50 379 69 379 H282 Q302 379 302 397 Q302 379 322 379 H533 Q552 379 552 360" fill="none" stroke="#16191f" stroke-width="1.5"/><text x="302" y="431" font-size="24" font-weight="400" fill="#16191f" text-anchor="middle">Visible context</text><path d="M626 404 V358" fill="none" stroke="#0869d9" stroke-width="2" marker-end="url(#blue)"/><text x="626" y="438" font-size="22" font-weight="400" fill="#0869d9" text-anchor="middle">Predict next</text><text x="626" y="466" font-size="22" font-weight="400" fill="#0869d9" text-anchor="middle">token</text><rect x="44" y="511" width="656" height="82" rx="5" fill="white" stroke="#939ba6" stroke-width="1.5" stroke-dasharray="8 5"/><text x="60" y="542" font-size="21" font-weight="400" fill="#16191f" text-anchor="start">Use the tokens already in the context.</text><text x="60" y="571" font-size="21" font-weight="400" fill="#16191f" text-anchor="start">Example token split is illustrative.</text><text x="918" y="216" font-size="24" font-weight="700" fill="#16191f" text-anchor="middle">Attention visibility</text><text x="841" y="255" font-size="23" font-weight="400" fill="#16191f" text-anchor="middle">A</text><text x="905" y="255" font-size="23" font-weight="400" fill="#16191f" text-anchor="middle">B</text><text x="969" y="255" font-size="23" font-weight="400" fill="#16191f" text-anchor="middle">C</text><text x="1033" y="255" font-size="23" font-weight="400" fill="#16191f" text-anchor="middle">D</text><text x="787" y="300" font-size="23" font-weight="400" fill="#16191f" text-anchor="middle">A</text><rect x="809" y="268" width="64" height="54" rx="0" fill="#dfedfc" stroke="#16191f" stroke-width="1.5"/><text x="841" y="303" font-size="25" font-weight="400" fill="#16191f" text-anchor="middle">1</text><rect x="873" y="268" width="64" height="54" rx="0" fill="#eeeeee" stroke="#16191f" stroke-width="1.5"/><text x="905" y="303" font-size="25" font-weight="400" fill="#16191f" text-anchor="middle">×</text><rect x="937" y="268" width="64" height="54" rx="0" fill="#eeeeee" stroke="#16191f" stroke-width="1.5"/><text x="969" y="303" font-size="25" font-weight="400" fill="#16191f" text-anchor="middle">×</text><rect x="1001" y="268" width="64" height="54" rx="0" fill="#eeeeee" stroke="#16191f" stroke-width="1.5"/><text x="1033" y="303" font-size="25" font-weight="400" fill="#16191f" text-anchor="middle">×</text><text x="787" y="354" font-size="23" font-weight="400" fill="#16191f" text-anchor="middle">B</text><rect x="809" y="322" width="64" height="54" rx="0" fill="#dfedfc" stroke="#16191f" stroke-width="1.5"/><text x="841" y="357" font-size="25" font-weight="400" fill="#16191f" text-anchor="middle">1</text><rect x="873" y="322" width="64" height="54" rx="0" fill="#dfedfc" stroke="#16191f" stroke-width="1.5"/><text x="905" y="357" font-size="25" font-weight="400" fill="#16191f" text-anchor="middle">1</text><rect x="937" y="322" width="64" height="54" rx="0" fill="#eeeeee" stroke="#16191f" stroke-width="1.5"/><text x="969" y="357" font-size="25" font-weight="400" fill="#16191f" text-anchor="middle">×</text><rect x="1001" y="322" width="64" height="54" rx="0" fill="#eeeeee" stroke="#16191f" stroke-width="1.5"/><text x="1033" y="357" font-size="25" font-weight="400" fill="#16191f" text-anchor="middle">×</text><text x="787" y="408" font-size="23" font-weight="400" fill="#16191f" text-anchor="middle">C</text><rect x="809" y="376" width="64" height="54" rx="0" fill="#dfedfc" stroke="#16191f" stroke-width="1.5"/><text x="841" y="411" font-size="25" font-weight="400" fill="#16191f" text-anchor="middle">1</text><rect x="873" y="376" width="64" height="54" rx="0" fill="#dfedfc" stroke="#16191f" stroke-width="1.5"/><text x="905" y="411" font-size="25" font-weight="400" fill="#16191f" text-anchor="middle">1</text><rect x="937" y="376" width="64" height="54" rx="0" fill="#dfedfc" stroke="#16191f" stroke-width="1.5"/><text x="969" y="411" font-size="25" font-weight="400" fill="#16191f" text-anchor="middle">1</text><rect x="1001" y="376" width="64" height="54" rx="0" fill="#eeeeee" stroke="#16191f" stroke-width="1.5"/><text x="1033" y="411" font-size="25" font-weight="400" fill="#16191f" text-anchor="middle">×</text><text x="787" y="462" font-size="23" font-weight="400" fill="#16191f" text-anchor="middle">D</text><rect x="809" y="430" width="64" height="54" rx="0" fill="#dfedfc" stroke="#16191f" stroke-width="1.5"/><text x="841" y="465" font-size="25" font-weight="400" fill="#16191f" text-anchor="middle">1</text><rect x="873" y="430" width="64" height="54" rx="0" fill="#dfedfc" stroke="#16191f" stroke-width="1.5"/><text x="905" y="465" font-size="25" font-weight="400" fill="#16191f" text-anchor="middle">1</text><rect x="937" y="430" width="64" height="54" rx="0" fill="#dfedfc" stroke="#16191f" stroke-width="1.5"/><text x="969" y="465" font-size="25" font-weight="400" fill="#16191f" text-anchor="middle">1</text><rect x="1001" y="430" width="64" height="54" rx="0" fill="#dfedfc" stroke="#16191f" stroke-width="1.5"/><text x="1033" y="465" font-size="25" font-weight="400" fill="#16191f" text-anchor="middle">1</text><rect x="1100" y="276" width="44" height="44" rx="0" fill="#dfedfc" stroke="#16191f" stroke-width="1.5"/><text x="1122" y="307" font-size="24" font-weight="400" fill="#16191f" text-anchor="middle">1</text><text x="1159" y="305" font-size="22" font-weight="400" fill="#16191f" text-anchor="start">Visible</text><rect x="1100" y="352" width="44" height="44" rx="0" fill="#eeeeee" stroke="#16191f" stroke-width="1.5"/><text x="1122" y="383" font-size="24" font-weight="400" fill="#16191f" text-anchor="middle">×</text><text x="1159" y="381" font-size="22" font-weight="400" fill="#16191f" text-anchor="start">Blocked</text><rect x="760" y="511" width="596" height="82" rx="5" fill="white" stroke="#939ba6" stroke-width="1.5" stroke-dasharray="8 5"/><text x="776" y="542" font-size="21" font-weight="400" fill="#16191f" text-anchor="start">Each token can use itself and earlier tokens.</text><text x="776" y="571" font-size="21" font-weight="400" fill="#16191f" text-anchor="start">Future tokens are blocked.</text><rect x="24" y="638" width="1352" height="182" rx="5" fill="white" stroke="#828a96" stroke-width="1.5" stroke-dasharray="8 5"/><text x="44" y="677" font-size="28" font-weight="700" fill="#16191f" text-anchor="start">3. The Same Rule at Every Step</text><rect x="70" y="710" width="200" height="58" rx="5" fill="white" stroke="#16191f" stroke-width="1.5"/><text x="170.0" y="747.0" font-size="23" font-weight="400" fill="#16191f" text-anchor="middle">Token 1</text><path d="M270 739 H377" fill="none" stroke="#16191f" stroke-width="2" marker-end="url(#arrow)"/><rect x="390" y="710" width="200" height="58" rx="5" fill="white" stroke="#16191f" stroke-width="1.5"/><text x="490.0" y="747.0" font-size="23" font-weight="400" fill="#16191f" text-anchor="middle">Token 2</text><path d="M590 739 H697" fill="none" stroke="#16191f" stroke-width="2" marker-end="url(#arrow)"/><rect x="710" y="710" width="200" height="58" rx="5" fill="white" stroke="#16191f" stroke-width="1.5"/><text x="810.0" y="747.0" font-size="23" font-weight="400" fill="#16191f" text-anchor="middle">Token 3</text><path d="M910 739 H1017" fill="none" stroke="#16191f" stroke-width="2" marker-end="url(#arrow)"/><rect x="1030" y="710" width="200" height="58" rx="5" fill="white" stroke="#16191f" stroke-width="1.5"/><text x="1130.0" y="747.0" font-size="23" font-weight="400" fill="#16191f" text-anchor="middle">Token 4</text><text x="700" y="800" font-size="23" font-weight="400" fill="#16191f" text-anchor="middle">Predict each new token from all tokens before it.</text></g>
</svg>
